<svg xmlns="http://www.w3.org/2000/svg" viewBox="0 0 640 400" role="img" aria-label="LED户外大屏">
  <defs>
    <linearGradient id="sky" x1="0" y1="0" x2="0" y2="1">
      <stop offset="0" stop-color="#0b1e3a"/><stop offset="1" stop-color="#1c3f74"/>
    </linearGradient>
    <linearGradient id="scr" x1="0" y1="0" x2="1" y2="1">
      <stop offset="0" stop-color="#ff6a13"/><stop offset="1" stop-color="#ff9b3d"/>
    </linearGradient>
  </defs>
  <rect width="640" height="400" fill="url(#sky)"/>
  <g opacity="0.5" fill="#0a1830">
    <rect x="20" y="230" width="90" height="170"/><rect x="130" y="180" width="70" height="220"/>
    <rect x="470" y="200" width="80" height="200"/><rect x="560" y="250" width="70" height="150"/>
  </g>
  <g opacity="0.35" fill="#ffd27a">
    <rect x="35" y="250" width="10" height="10"/><rect x="60" y="250" width="10" height="10"/><rect x="35" y="280" width="10" height="10"/>
    <rect x="150" y="200" width="8" height="8"/><rect x="170" y="200" width="8" height="8"/><rect x="150" y="230" width="8" height="8"/>
    <rect x="490" y="230" width="8" height="8"/><rect x="515" y="230" width="8" height="8"/><rect x="490" y="260" width="8" height="8"/>
  </g>
  <rect x="235" y="300" width="24" height="100" fill="#0a1830"/>
  <rect x="381" y="300" width="24" height="100" fill="#0a1830"/>
  <rect x="200" y="70" width="240" height="150" rx="10" fill="#08122a" stroke="#2f6fed" stroke-width="3"/>
  <rect x="212" y="82" width="216" height="126" rx="6" fill="url(#scr)"/>
  <text x="320" y="135" font-family="PingFang SC,Microsoft YaHei,sans-serif" font-size="30" font-weight="800" fill="#fff" text-anchor="middle">地平线传媒</text>
  <text x="320" y="170" font-family="PingFang SC,Microsoft YaHei,sans-serif" font-size="15" fill="#fff8ef" text-anchor="middle" opacity="0.95">城市地标 LED 大屏</text>
</svg>
